<?xml version="1.0" encoding="UTF-8"?>
<svg id="Layer_1" data-name="Layer 1" xmlns="http://www.w3.org/2000/svg" viewBox="0 0 8192 4761.48">
  <defs>
    <style>
      .cls-1 {
        fill: #000220;
      }

      .cls-2 {
        fill: #ff7542;
      }
    </style>
  </defs>
  <g id="F1">
    <path class="cls-1" d="M570.78,4380.25v-1810.03H95.26c-52.61,0-95.26-42.65-95.26-95.26v-761.55c0-52.61,42.65-95.26,95.26-95.26h475.52v-617.76c0-394.57,319.87-714.43,714.43-714.43h906.11c52.61,0,95.26,42.65,95.26,95.26v761.55c0,52.61-42.65,95.26-95.26,95.26h-573.22c-52.61,0-95.26,42.65-95.26,95.26v284.87h668.48c52.61,0,95.26,42.65,95.26,95.26v761.55c0,52.61-42.65,95.26-95.26,95.26h-668.48v1810.03c0,52.61-42.65,95.26-95.26,95.26h-761.55c-52.61,0-95.26-42.65-95.26-95.26h0Z"/>
  </g>
  <g id="Layer_3" data-name="Layer 3">
    <path class="cls-2" d="M3237.47,4381.86v-1810.03h-475.52c-52.61,0-95.26-42.65-95.26-95.26v-761.55c0-52.61,42.65-95.26,95.26-95.26h475.52v-617.76c0-394.57,319.87-714.43,714.43-714.43h906.11c52.61,0,95.26,42.65,95.26,95.26v761.55c0,52.61-42.65,95.26-95.26,95.26h-573.22c-52.61,0-95.26,42.65-95.26,95.26v284.87h668.48c52.61,0,95.26,42.65,95.26,95.26v761.55c0,52.61-42.65,95.26-95.26,95.26h-668.48v1810.03c0,52.61-42.65,95.26-95.26,95.26h-761.55c-52.61,0-95.26-42.65-95.26-95.26h0Z"/>
  </g>
  <g id="Layer_4" data-name="Layer 4">
    <path class="cls-2" d="M5619.46,0h996.1c48.61,0,93.87,24.78,120.06,65.72l1433.91,2241.38c30,46.89,29.96,106.93-.09,153.77l-1433.79,2235.03c-26.21,40.87-71.42,65.58-119.97,65.58h-1012.71c-113.06,0-181.11-125.33-119.55-220.16l1350.78-2080.24c30.46-46.91,30.67-107.32.52-154.43L5499.38,219.35c-60.7-94.88,7.44-219.35,120.06-219.35h0Z"/>
  </g>
</svg>