<?xml version="1.0" encoding="UTF-8"?>
<svg xmlns="http://www.w3.org/2000/svg" viewBox="0 0 8599.81 4998.51">
  <defs>
    <style>
      .cls-1 {
        fill: #f36e2a;
      }

      .cls-2 {
        fill: #231f20;
      }
    </style>
  </defs>
  <g id="F1">
    <path class="cls-2" d="M599.19,4598.31v-1900.14H100c-55.23,0-100-44.77-100-100v-799.46c0-55.23,44.77-100,100-100h499.19v-648.51c0-414.21,335.79-750,750-750h951.22c55.23,0,100,44.77,100,100v799.46c0,55.23-44.77,100-100,100h-601.76c-55.23,0-100,44.77-100,100v299.05h701.76c55.23,0,100,44.77,100,100v799.46c0,55.23-44.77,100-100,100h-701.76v1900.14c0,55.23-44.77,100-100,100h-799.46c-55.23,0-100-44.77-100-100Z"/>
  </g>
  <g id="Layer_3" data-name="Layer 3">
    <path class="cls-1" d="M3398.64,4600v-1900.14h-499.19c-55.23,0-100-44.77-100-100v-799.46c0-55.23,44.77-100,100-100h499.19v-648.51c0-414.21,335.79-750,750-750h951.22c55.23,0,100,44.77,100,100v799.46c0,55.23-44.77,100-100,100h-601.76c-55.23,0-100,44.77-100,100v299.05h701.76c55.23,0,100,44.77,100,100v799.46c0,55.23-44.77,100-100,100h-701.76v1900.14c0,55.23-44.77,100-100,100h-799.46c-55.23,0-100-44.77-100-100Z"/>
  </g>
  <g id="Layer_4" data-name="Layer 4">
    <path class="cls-1" d="M5899.2,0h1045.69c51.03,0,98.54,26.01,126.04,68.99l1505.29,2352.96c31.49,49.22,31.45,112.25-.1,161.43l-1505.17,2346.29c-27.52,42.9-74.98,68.84-125.94,68.84h-1063.12c-118.69,0-190.13-131.57-125.5-231.12l1418.02-2183.8c31.98-49.25,32.2-112.66.55-162.12L5773.15,230.27c-63.72-99.6,7.81-230.27,126.04-230.27Z"/>
  </g>
</svg>